<?xml version="1.0" encoding="utf-8"?>
<!-- Generator: Adobe Illustrator 22.0.0, SVG Export Plug-In . SVG Version: 6.00 Build 0)  -->
<svg version="1.1" id="Layer_1" xmlns="http://www.w3.org/2000/svg" xmlns:xlink="http://www.w3.org/1999/xlink" x="0px" y="0px"
	 viewBox="0 0 46 46" style="enable-background:new 0 0 46 46;" xml:space="preserve">
<style type="text/css">
	.st1{fill:#41CFFD;}
</style>
<g>
	<path class="st1" d="M23,0C10.3,0,0,10.3,0,23c0,12.7,10.3,23,23,23c12.7,0,23-10.3,23-23C46,10.3,35.7,0,23,0z M22.2,40.8
		c-0.5,1.1-2,2.1-4.8,1.6c-6.1-1-9.4-4.5-11.4-7C3.4,32,1.9,27.6,1.9,23c0-2.1,0.3-4.2,0.9-6.1C3.5,25.6,14,31.9,17,33.5
		c1.2,0.7,2.3,1.3,3.3,2.1C22.3,37.3,22.9,39.4,22.2,40.8z M29,12.5c-1.2-0.7-2.3-1.3-3.3-2.1c-2-1.7-2.6-3.7-2-5.2
		c0.5-1.1,2-2.1,4.8-1.6c6.1,1,9.4,4.5,11.4,7c2.6,3.5,4.1,7.9,4.1,12.5c0,2.1-0.3,4.2-0.9,6.1C42.5,20.4,32,14.1,29,12.5z"/>
</g>
</svg>
