<?xml version="1.0" encoding="utf-8"?>
<!-- Generator: Adobe Illustrator 23.0.3, SVG Export Plug-In . SVG Version: 6.00 Build 0)  -->
<svg version="1.1" id="Layer_1" xmlns="http://www.w3.org/2000/svg" xmlns:xlink="http://www.w3.org/1999/xlink" x="0px" y="0px"
	 viewBox="0 0 151 47" style="enable-background:new 0 0 151 47;" xml:space="preserve">
<style type="text/css">
	.st0{fill:#FFFFFF;}
	.st1{fill:#41CFFD;}
</style>
<g>
	<g id="XMLID_26_">
		<path id="XMLID_312_" class="st0" d="M83.6,13.8c1.5,1.3,2.3,3.3,2.3,5.9h-5c0-1.3-0.4-2.2-1.1-2.9s-1.7-1-3.1-1
			c-1.1,0-2,0.2-2.7,0.7c-0.7,0.5-1,1.1-1,1.9c0,0.6,0.2,1.1,0.5,1.5s0.9,0.7,1.6,1s1.8,0.6,3.1,0.9c1.9,0.5,3.4,0.9,4.5,1.4
			s2.1,1.2,2.8,2.2c0.7,1,1.1,2.3,1.1,3.9c0,1.5-0.4,2.8-1.2,4c-0.8,1.1-1.9,2-3.3,2.7c-1.4,0.6-3,0.9-4.9,0.9c-3,0-5.4-0.7-7.1-2.2
			s-2.6-3.5-2.6-6.2h5.1c0,1.5,0.4,2.6,1.2,3.3c0.8,0.7,1.9,1.1,3.5,1.1c1.3,0,2.3-0.3,3-0.8c0.8-0.6,1.1-1.3,1.1-2.2
			c0-0.7-0.2-1.2-0.5-1.6s-0.8-0.7-1.4-0.9c-0.6-0.2-1.6-0.5-3-0.9c-1.9-0.5-3.5-1-4.6-1.4c-1.1-0.5-2.1-1.2-2.8-2.1
			c-0.8-1-1.1-2.2-1.1-3.9c0-1.4,0.4-2.6,1.1-3.7s1.8-1.9,3.1-2.5c1.3-0.6,2.9-0.9,4.6-0.9C79.8,11.8,82.1,12.5,83.6,13.8z"/>
		<path id="XMLID_149_" class="st0" d="M88.8,17.1v-4.7h4.7v4.7H88.8z M88.8,36.3V19.2h4.7v17.1H88.8z"/>
		<path id="XMLID_146_" class="st0" d="M106.6,19.4v4.1c-0.6-0.1-1.1-0.2-1.5-0.2c-1.4,0-2.5,0.4-3.3,1.3s-1.1,2.2-1.1,3.8v7.8H96
			v-17h4.3v2.7h0.1c0.6-0.9,1.2-1.6,2-2s1.7-0.7,2.7-0.7C105.6,19.2,106.1,19.3,106.6,19.4z"/>
		<path id="XMLID_305_" class="st0" d="M131.8,20.6c1.1,1.2,1.6,2.9,1.6,5.2v10.5h-4.7v-10c0-1.3-0.2-2.2-0.7-2.8
			c-0.5-0.6-1.1-0.9-2-0.9c-1,0-1.8,0.4-2.3,1.3s-0.8,2.1-0.8,3.7v8.8h-4.6V26c0-1.1-0.2-1.9-0.7-2.6c-0.5-0.6-1.1-0.9-2-0.9
			c-1,0-1.8,0.4-2.3,1.3s-0.8,2.1-0.8,3.7v8.8h-4.7V19.2h4.4v1.9h0.1c0.6-0.8,1.3-1.4,2.1-1.8c0.8-0.4,1.6-0.6,2.7-0.6
			c1.2,0,2.2,0.2,3.1,0.7s1.5,1.2,2,2.2c0.7-1,1.4-1.7,2.3-2.2s1.9-0.7,3.2-0.7C129.3,18.8,130.8,19.4,131.8,20.6z"/>
		<path id="XMLID_29_" class="st0" d="M150.5,31.6v-3.1v-3c0-2.2-0.6-3.9-1.8-5.1c-1.2-1.1-3.1-1.7-5.5-1.7c-2.3,0-4.1,0.5-5.4,1.6
			c-1.3,1.1-1.9,2.5-2,4.2h4.6c0-0.8,0.3-1.4,0.8-1.9s1.2-0.7,2-0.7c0.9,0,1.6,0.2,2,0.7c0.5,0.5,0.7,1.3,0.7,2.3v0.6
			c-1.4,0.1-2.8,0.2-4.3,0.5c-2.4,0.4-4.1,1-5.1,1.9S135,30,135,31.4c0,1.5,0.5,2.7,1.6,3.7s2.5,1.5,4.2,1.5c2.2,0,3.8-0.7,5.1-2.1
			v1.7h4.5C150.5,36.3,150.5,33.5,150.5,31.6z M145.8,31.1c-0.1,0.5-0.4,0.9-0.8,1.3c-0.3,0.3-0.7,0.6-1.2,0.7
			c-0.5,0.2-1,0.3-1.5,0.3c-0.8,0-1.4-0.2-1.9-0.6c-0.4-0.4-0.7-0.9-0.7-1.6s0.2-1.2,0.6-1.5c0.4-0.4,1.1-0.6,2.1-0.8
			c0.9-0.2,2.1-0.3,3.4-0.4v0.6C146,29.9,145.9,30.6,145.8,31.1z"/>
	</g>
	<path class="st1" d="M23.5,0.5c-12.7,0-23,10.3-23,23s10.3,23,23,23s23-10.3,23-23S36.1,0.5,23.5,0.5z M22.7,41.3
		c-0.5,1.1-2,2.1-4.8,1.6c-6.1-1-9.4-4.5-11.4-7c-2.6-3.4-4.1-7.8-4.1-12.4c0-2.1,0.3-4.2,0.9-6.1C4,26.1,14.5,32.4,17.5,34
		c1.2,0.7,2.3,1.3,3.3,2.1C22.8,37.8,23.4,39.9,22.7,41.3z M29.4,13c-1.2-0.7-2.3-1.3-3.3-2.1c-2-1.7-2.6-3.7-2-5.2
		c0.5-1.1,2-2.1,4.8-1.6c6.1,1,9.4,4.5,11.4,7c2.6,3.5,4.1,7.9,4.1,12.5c0,2.1-0.3,4.2-0.9,6.1C42.9,20.9,32.4,14.6,29.4,13z"/>
</g>
</svg>
